<mxfile host="Electron" modified="2023-10-17T17:00:37.754Z" agent="Mozilla/5.0 (Windows NT 10.0; Win64; x64) AppleWebKit/537.36 (KHTML, like Gecko) draw.io/22.0.2 Chrome/114.0.5735.289 Electron/25.8.4 Safari/537.36" etag="egvPY9BeYCX9y3sQFD4b" version="22.0.2" type="device">
  <diagram name="Page-1" id="6WJERZKRpdv4S6RsFoXy">
    <mxGraphModel dx="1941" dy="638" grid="1" gridSize="10" guides="1" tooltips="1" connect="1" arrows="1" fold="1" page="1" pageScale="1" pageWidth="850" pageHeight="1100" math="0" shadow="0">
      <root>
        <mxCell id="0" />
        <mxCell id="1" parent="0" />
        <mxCell id="8paL_Bh5cU5GlHEFZkek-1" value="" style="whiteSpace=wrap;html=1;aspect=fixed;" vertex="1" parent="1">
          <mxGeometry x="90" y="120" width="1200" height="1200" as="geometry" />
        </mxCell>
        <mxCell id="8paL_Bh5cU5GlHEFZkek-6" style="edgeStyle=orthogonalEdgeStyle;rounded=0;orthogonalLoop=1;jettySize=auto;html=1;entryX=0;entryY=0.5;entryDx=0;entryDy=0;endArrow=none;endFill=0;" edge="1" parent="1" source="8paL_Bh5cU5GlHEFZkek-3" target="8paL_Bh5cU5GlHEFZkek-5">
          <mxGeometry relative="1" as="geometry" />
        </mxCell>
        <mxCell id="8paL_Bh5cU5GlHEFZkek-3" value="&amp;lt;&amp;lt;external user&amp;gt;&amp;gt;&lt;br&gt;Mouse / Keyboard" style="whiteSpace=wrap;html=1;aspect=fixed;" vertex="1" parent="1">
          <mxGeometry x="-10" y="120" width="80" height="80" as="geometry" />
        </mxCell>
        <mxCell id="8paL_Bh5cU5GlHEFZkek-4" value="&amp;lt;&amp;lt;external output device&amp;gt;&amp;gt;&lt;br&gt;Monitor" style="whiteSpace=wrap;html=1;aspect=fixed;" vertex="1" parent="1">
          <mxGeometry x="-10" y="270" width="80" height="80" as="geometry" />
        </mxCell>
        <mxCell id="8paL_Bh5cU5GlHEFZkek-7" style="edgeStyle=orthogonalEdgeStyle;rounded=0;orthogonalLoop=1;jettySize=auto;html=1;entryX=1;entryY=0.5;entryDx=0;entryDy=0;endArrow=none;endFill=0;" edge="1" parent="1" source="8paL_Bh5cU5GlHEFZkek-5" target="8paL_Bh5cU5GlHEFZkek-4">
          <mxGeometry relative="1" as="geometry">
            <Array as="points">
              <mxPoint x="360" y="310" />
            </Array>
          </mxGeometry>
        </mxCell>
        <mxCell id="8paL_Bh5cU5GlHEFZkek-14" style="edgeStyle=orthogonalEdgeStyle;rounded=0;orthogonalLoop=1;jettySize=auto;html=1;entryX=0;entryY=0.5;entryDx=0;entryDy=0;endArrow=none;endFill=0;" edge="1" parent="1" source="8paL_Bh5cU5GlHEFZkek-5" target="8paL_Bh5cU5GlHEFZkek-13">
          <mxGeometry relative="1" as="geometry" />
        </mxCell>
        <mxCell id="8paL_Bh5cU5GlHEFZkek-5" value="&amp;lt;&amp;lt;user interaction&amp;gt;&amp;gt;&lt;br&gt;User Interface" style="whiteSpace=wrap;html=1;aspect=fixed;" vertex="1" parent="1">
          <mxGeometry x="320" y="170" width="80" height="80" as="geometry" />
        </mxCell>
        <mxCell id="8paL_Bh5cU5GlHEFZkek-10" value="Display Information" style="text;html=1;strokeColor=none;fillColor=none;align=center;verticalAlign=middle;whiteSpace=wrap;rounded=0;" vertex="1" parent="1">
          <mxGeometry x="190" y="270" width="60" height="30" as="geometry" />
        </mxCell>
        <mxCell id="8paL_Bh5cU5GlHEFZkek-11" value="Access Website" style="text;html=1;strokeColor=none;fillColor=none;align=center;verticalAlign=middle;whiteSpace=wrap;rounded=0;" vertex="1" parent="1">
          <mxGeometry x="220" y="150" width="60" height="30" as="geometry" />
        </mxCell>
        <mxCell id="8paL_Bh5cU5GlHEFZkek-13" value="&amp;lt;&amp;lt;entity&amp;gt;&amp;gt;&lt;br&gt;Account" style="whiteSpace=wrap;html=1;aspect=fixed;" vertex="1" parent="1">
          <mxGeometry x="590" y="170" width="80" height="80" as="geometry" />
        </mxCell>
        <mxCell id="8paL_Bh5cU5GlHEFZkek-15" value="" style="endArrow=classic;html=1;rounded=0;" edge="1" parent="1">
          <mxGeometry width="50" height="50" relative="1" as="geometry">
            <mxPoint x="450" y="190" as="sourcePoint" />
            <mxPoint x="530" y="190" as="targetPoint" />
          </mxGeometry>
        </mxCell>
        <mxCell id="8paL_Bh5cU5GlHEFZkek-17" value="Send Login Credentials" style="text;html=1;strokeColor=none;fillColor=none;align=center;verticalAlign=middle;whiteSpace=wrap;rounded=0;" vertex="1" parent="1">
          <mxGeometry x="460" y="150" width="60" height="30" as="geometry" />
        </mxCell>
        <mxCell id="8paL_Bh5cU5GlHEFZkek-18" value="Respond with Data" style="text;html=1;strokeColor=none;fillColor=none;align=center;verticalAlign=middle;whiteSpace=wrap;rounded=0;" vertex="1" parent="1">
          <mxGeometry x="460" y="250" width="60" height="30" as="geometry" />
        </mxCell>
        <mxCell id="8paL_Bh5cU5GlHEFZkek-19" value="" style="endArrow=classic;html=1;rounded=0;" edge="1" parent="1">
          <mxGeometry width="50" height="50" relative="1" as="geometry">
            <mxPoint x="535" y="240" as="sourcePoint" />
            <mxPoint x="445" y="240" as="targetPoint" />
            <Array as="points">
              <mxPoint x="515" y="240" />
            </Array>
          </mxGeometry>
        </mxCell>
        <mxCell id="8paL_Bh5cU5GlHEFZkek-23" value="" style="endArrow=classic;html=1;rounded=0;" edge="1" parent="1">
          <mxGeometry width="50" height="50" relative="1" as="geometry">
            <mxPoint x="265" y="264.5" as="sourcePoint" />
            <mxPoint x="175" y="264.5" as="targetPoint" />
            <Array as="points">
              <mxPoint x="245" y="264.5" />
            </Array>
          </mxGeometry>
        </mxCell>
        <mxCell id="8paL_Bh5cU5GlHEFZkek-24" value="" style="endArrow=classic;html=1;rounded=0;" edge="1" parent="1">
          <mxGeometry width="50" height="50" relative="1" as="geometry">
            <mxPoint x="225" y="190" as="sourcePoint" />
            <mxPoint x="295" y="190" as="targetPoint" />
            <Array as="points">
              <mxPoint x="205" y="190" />
            </Array>
          </mxGeometry>
        </mxCell>
        <mxCell id="8paL_Bh5cU5GlHEFZkek-25" style="edgeStyle=orthogonalEdgeStyle;rounded=0;orthogonalLoop=1;jettySize=auto;html=1;" edge="1" parent="1" source="8paL_Bh5cU5GlHEFZkek-13" target="8paL_Bh5cU5GlHEFZkek-26">
          <mxGeometry relative="1" as="geometry" />
        </mxCell>
        <mxCell id="8paL_Bh5cU5GlHEFZkek-26" value="&amp;lt;&amp;lt;entity&amp;gt;&amp;gt;&lt;br&gt;Server" style="whiteSpace=wrap;html=1;aspect=fixed;" vertex="1" parent="1">
          <mxGeometry x="980" y="170" width="80" height="80" as="geometry" />
        </mxCell>
        <mxCell id="8paL_Bh5cU5GlHEFZkek-28" value="" style="endArrow=classic;html=1;rounded=0;" edge="1" parent="1">
          <mxGeometry width="50" height="50" relative="1" as="geometry">
            <mxPoint x="780" y="199" as="sourcePoint" />
            <mxPoint x="860" y="199" as="targetPoint" />
          </mxGeometry>
        </mxCell>
        <mxCell id="8paL_Bh5cU5GlHEFZkek-29" value="Authenticate" style="text;html=1;strokeColor=none;fillColor=none;align=center;verticalAlign=middle;whiteSpace=wrap;rounded=0;" vertex="1" parent="1">
          <mxGeometry x="790" y="160" width="60" height="30" as="geometry" />
        </mxCell>
        <mxCell id="8paL_Bh5cU5GlHEFZkek-30" value="Respond with Data" style="text;html=1;strokeColor=none;fillColor=none;align=center;verticalAlign=middle;whiteSpace=wrap;rounded=0;" vertex="1" parent="1">
          <mxGeometry x="790" y="240" width="60" height="30" as="geometry" />
        </mxCell>
        <mxCell id="8paL_Bh5cU5GlHEFZkek-31" value="" style="endArrow=classic;html=1;rounded=0;" edge="1" parent="1">
          <mxGeometry width="50" height="50" relative="1" as="geometry">
            <mxPoint x="865" y="230" as="sourcePoint" />
            <mxPoint x="775" y="230" as="targetPoint" />
            <Array as="points">
              <mxPoint x="845" y="230" />
            </Array>
          </mxGeometry>
        </mxCell>
        <mxCell id="8paL_Bh5cU5GlHEFZkek-35" style="edgeStyle=orthogonalEdgeStyle;rounded=0;orthogonalLoop=1;jettySize=auto;html=1;entryX=0.5;entryY=1;entryDx=0;entryDy=0;" edge="1" parent="1" source="8paL_Bh5cU5GlHEFZkek-32" target="8paL_Bh5cU5GlHEFZkek-26">
          <mxGeometry relative="1" as="geometry">
            <Array as="points">
              <mxPoint x="400" y="410" />
              <mxPoint x="1020" y="410" />
            </Array>
          </mxGeometry>
        </mxCell>
        <mxCell id="8paL_Bh5cU5GlHEFZkek-52" style="edgeStyle=orthogonalEdgeStyle;rounded=0;orthogonalLoop=1;jettySize=auto;html=1;entryX=0.5;entryY=0;entryDx=0;entryDy=0;" edge="1" parent="1" source="8paL_Bh5cU5GlHEFZkek-32" target="8paL_Bh5cU5GlHEFZkek-51">
          <mxGeometry relative="1" as="geometry" />
        </mxCell>
        <mxCell id="8paL_Bh5cU5GlHEFZkek-53" style="edgeStyle=orthogonalEdgeStyle;rounded=0;orthogonalLoop=1;jettySize=auto;html=1;entryX=0.5;entryY=0;entryDx=0;entryDy=0;" edge="1" parent="1" source="8paL_Bh5cU5GlHEFZkek-32" target="8paL_Bh5cU5GlHEFZkek-50">
          <mxGeometry relative="1" as="geometry" />
        </mxCell>
        <mxCell id="8paL_Bh5cU5GlHEFZkek-54" style="edgeStyle=orthogonalEdgeStyle;rounded=0;orthogonalLoop=1;jettySize=auto;html=1;entryX=0.5;entryY=0;entryDx=0;entryDy=0;" edge="1" parent="1" source="8paL_Bh5cU5GlHEFZkek-32" target="8paL_Bh5cU5GlHEFZkek-49">
          <mxGeometry relative="1" as="geometry" />
        </mxCell>
        <mxCell id="8paL_Bh5cU5GlHEFZkek-32" value="&amp;lt;&amp;lt;entity&amp;gt;&amp;gt;&lt;br&gt;Podcast Manager" style="whiteSpace=wrap;html=1;aspect=fixed;" vertex="1" parent="1">
          <mxGeometry x="360" y="500" width="80" height="80" as="geometry" />
        </mxCell>
        <mxCell id="8paL_Bh5cU5GlHEFZkek-36" style="edgeStyle=orthogonalEdgeStyle;rounded=0;orthogonalLoop=1;jettySize=auto;html=1;entryX=0.5;entryY=1;entryDx=0;entryDy=0;" edge="1" parent="1" source="8paL_Bh5cU5GlHEFZkek-33" target="8paL_Bh5cU5GlHEFZkek-26">
          <mxGeometry relative="1" as="geometry">
            <Array as="points">
              <mxPoint x="740" y="410" />
              <mxPoint x="1020" y="410" />
            </Array>
          </mxGeometry>
        </mxCell>
        <mxCell id="8paL_Bh5cU5GlHEFZkek-33" value="&amp;lt;&amp;lt;entity&amp;gt;&amp;gt;&lt;br&gt;User Manager" style="whiteSpace=wrap;html=1;aspect=fixed;" vertex="1" parent="1">
          <mxGeometry x="700" y="500" width="80" height="80" as="geometry" />
        </mxCell>
        <mxCell id="8paL_Bh5cU5GlHEFZkek-43" style="edgeStyle=orthogonalEdgeStyle;rounded=0;orthogonalLoop=1;jettySize=auto;html=1;entryX=0.5;entryY=1;entryDx=0;entryDy=0;" edge="1" parent="1" source="8paL_Bh5cU5GlHEFZkek-34" target="8paL_Bh5cU5GlHEFZkek-26">
          <mxGeometry relative="1" as="geometry">
            <Array as="points">
              <mxPoint x="1020" y="450" />
              <mxPoint x="1020" y="450" />
            </Array>
          </mxGeometry>
        </mxCell>
        <mxCell id="8paL_Bh5cU5GlHEFZkek-34" value="&amp;lt;&amp;lt;entity&amp;gt;&amp;gt;&lt;br&gt;Social Media Manager" style="whiteSpace=wrap;html=1;aspect=fixed;" vertex="1" parent="1">
          <mxGeometry x="980" y="500" width="80" height="80" as="geometry" />
        </mxCell>
        <mxCell id="8paL_Bh5cU5GlHEFZkek-39" value="" style="endArrow=classic;html=1;rounded=0;" edge="1" parent="1">
          <mxGeometry width="50" height="50" relative="1" as="geometry">
            <mxPoint x="500" y="390" as="sourcePoint" />
            <mxPoint x="600" y="390" as="targetPoint" />
          </mxGeometry>
        </mxCell>
        <mxCell id="8paL_Bh5cU5GlHEFZkek-40" value="Respond with Data" style="text;html=1;strokeColor=none;fillColor=none;align=center;verticalAlign=middle;whiteSpace=wrap;rounded=0;" vertex="1" parent="1">
          <mxGeometry x="510" y="350" width="60" height="30" as="geometry" />
        </mxCell>
        <mxCell id="8paL_Bh5cU5GlHEFZkek-41" value="Respond with Data" style="text;html=1;strokeColor=none;fillColor=none;align=center;verticalAlign=middle;whiteSpace=wrap;rounded=0;" vertex="1" parent="1">
          <mxGeometry x="840" y="360" width="60" height="30" as="geometry" />
        </mxCell>
        <mxCell id="8paL_Bh5cU5GlHEFZkek-42" value="" style="endArrow=classic;html=1;rounded=0;" edge="1" parent="1">
          <mxGeometry width="50" height="50" relative="1" as="geometry">
            <mxPoint x="825" y="400" as="sourcePoint" />
            <mxPoint x="935" y="400" as="targetPoint" />
            <Array as="points">
              <mxPoint x="805" y="400" />
            </Array>
          </mxGeometry>
        </mxCell>
        <mxCell id="8paL_Bh5cU5GlHEFZkek-44" value="Respond with Data" style="text;html=1;strokeColor=none;fillColor=none;align=center;verticalAlign=middle;whiteSpace=wrap;rounded=0;" vertex="1" parent="1">
          <mxGeometry x="780" y="20" width="60" height="30" as="geometry" />
        </mxCell>
        <mxCell id="8paL_Bh5cU5GlHEFZkek-46" value="" style="endArrow=classic;html=1;rounded=0;" edge="1" parent="1">
          <mxGeometry width="50" height="50" relative="1" as="geometry">
            <mxPoint x="1040" y="390" as="sourcePoint" />
            <mxPoint x="1040" y="310" as="targetPoint" />
          </mxGeometry>
        </mxCell>
        <mxCell id="8paL_Bh5cU5GlHEFZkek-47" value="Respond with Data" style="text;html=1;strokeColor=none;fillColor=none;align=center;verticalAlign=middle;whiteSpace=wrap;rounded=0;" vertex="1" parent="1">
          <mxGeometry x="1050" y="340" width="60" height="30" as="geometry" />
        </mxCell>
        <mxCell id="8paL_Bh5cU5GlHEFZkek-49" value="" style="whiteSpace=wrap;html=1;aspect=fixed;" vertex="1" parent="1">
          <mxGeometry x="210" y="640" width="80" height="80" as="geometry" />
        </mxCell>
        <mxCell id="8paL_Bh5cU5GlHEFZkek-50" value="" style="whiteSpace=wrap;html=1;aspect=fixed;" vertex="1" parent="1">
          <mxGeometry x="360" y="740" width="80" height="80" as="geometry" />
        </mxCell>
        <mxCell id="8paL_Bh5cU5GlHEFZkek-51" value="" style="whiteSpace=wrap;html=1;aspect=fixed;" vertex="1" parent="1">
          <mxGeometry x="500" y="640" width="80" height="80" as="geometry" />
        </mxCell>
        <mxCell id="8paL_Bh5cU5GlHEFZkek-55" value="" style="endArrow=classic;html=1;rounded=0;" edge="1" parent="1">
          <mxGeometry width="50" height="50" relative="1" as="geometry">
            <mxPoint x="450" y="520" as="sourcePoint" />
            <mxPoint x="550" y="520" as="targetPoint" />
          </mxGeometry>
        </mxCell>
        <mxCell id="8paL_Bh5cU5GlHEFZkek-56" value="Send Delete Podcast Request" style="text;html=1;strokeColor=none;fillColor=none;align=center;verticalAlign=middle;whiteSpace=wrap;rounded=0;" vertex="1" parent="1">
          <mxGeometry x="440" y="480" width="130" height="30" as="geometry" />
        </mxCell>
        <mxCell id="8paL_Bh5cU5GlHEFZkek-58" value="Send Edit Podcast Request" style="text;html=1;strokeColor=none;fillColor=none;align=center;verticalAlign=middle;whiteSpace=wrap;rounded=0;" vertex="1" parent="1">
          <mxGeometry x="250" y="480" width="100" height="30" as="geometry" />
        </mxCell>
        <mxCell id="8paL_Bh5cU5GlHEFZkek-59" value="" style="endArrow=classic;html=1;rounded=0;" edge="1" parent="1">
          <mxGeometry width="50" height="50" relative="1" as="geometry">
            <mxPoint x="350" y="520" as="sourcePoint" />
            <mxPoint x="250" y="520" as="targetPoint" />
            <Array as="points">
              <mxPoint x="330" y="520" />
            </Array>
          </mxGeometry>
        </mxCell>
      </root>
    </mxGraphModel>
  </diagram>
</mxfile>
